<?xml version="1.0" encoding="UTF-8" standalone="no"?>
<!DOCTYPE svg PUBLIC "-//W3C//DTD SVG 1.1//EN" "http://www.w3.org/Graphics/SVG/1.1/DTD/svg11.dtd">
<svg width="100%" height="100%" viewBox="0 0 100 100" version="1.1" xmlns="http://www.w3.org/2000/svg" xmlns:xlink="http://www.w3.org/1999/xlink" xml:space="preserve" xmlns:serif="http://www.serif.com/" style="fill-rule:evenodd;clip-rule:evenodd;stroke-linejoin:round;stroke-miterlimit:1.41421;">
    <g id="Viewer" transform="matrix(1,0,0,1,10.0001,9.59051)">
        <path id="Fill-1" d="M0,20L80,20L80,14.545L0,14.545L0,20Z" style="fill:rgb(6,150,215);"/>
        <path id="Fill-2" d="M10.092,10.124C10.092,11.245 9.208,12.155 8.118,12.155C7.027,12.155 6.144,11.245 6.144,10.124C6.144,9.003 7.027,8.094 8.118,8.094C9.208,8.094 10.092,9.003 10.092,10.124" style="fill:rgb(6,150,215);"/>
        <path id="Fill-4" d="M15.191,10.124C15.191,11.245 14.308,12.155 13.216,12.155C12.126,12.155 11.243,11.245 11.243,10.124C11.243,9.003 12.126,8.094 13.216,8.094C14.308,8.094 15.191,9.003 15.191,10.124" style="fill:rgb(6,150,215);"/>
        <path id="Fill-6" d="M20.29,10.124C20.29,11.245 19.407,12.155 18.316,12.155C17.226,12.155 16.342,11.245 16.342,10.124C16.342,9.003 17.226,8.094 18.316,8.094C19.407,8.094 20.29,9.003 20.29,10.124" style="fill:rgb(6,150,215);"/>
        <path id="Fill-8" d="M40,80C24.869,80 8.788,75.633 8.788,67.539C8.788,65.802 9.58,63.22 13.353,60.786C14.24,60.211 15.412,60.489 15.972,61.404C16.528,62.318 16.26,63.523 15.37,64.097C13.577,65.256 12.588,66.478 12.588,67.539C12.588,71.111 23.016,76.092 40,76.092C56.984,76.092 67.412,71.111 67.412,67.539C67.412,66.251 65.963,64.743 63.435,63.401C62.503,62.905 62.136,61.728 62.618,60.768C63.099,59.809 64.244,59.433 65.177,59.928C70.164,62.575 71.212,65.528 71.212,67.539C71.212,75.633 55.132,80 40,80" style="fill:rgb(6,150,215);"/>
        <path id="Fill-10" d="M60.88,67.532L60.195,59.909C60.109,58.94 60.728,58.055 61.647,57.828L69.042,56.015L69.923,59.817L64.13,61.237L64.662,67.173L60.88,67.532Z" style="fill:rgb(6,150,215);"/>
        <path id="Fill-12" d="M15.694,61.665C14.153,62.482 12.924,63.382 12.069,64.342" style="fill:white;"/>
        <path id="Fill-14" d="M12.069,66.296C11.61,66.296 11.151,66.127 10.786,65.784C10.013,65.055 9.96,63.818 10.667,63.023C11.662,61.906 13.06,60.865 14.822,59.928C15.755,59.431 16.9,59.81 17.382,60.768C17.863,61.727 17.497,62.905 16.565,63.401C15.203,64.125 14.161,64.885 13.471,65.661C13.096,66.082 12.583,66.296 12.069,66.296" style="fill:rgb(6,150,215);"/>
        <path id="Fill-16" d="M23.781,57.85L36.829,64.561L36.829,47.269L23.781,40.559L23.781,57.85ZM38.727,69.676C38.437,69.676 38.146,69.607 37.879,69.47L21.031,60.805C20.387,60.475 19.982,59.798 19.982,59.058L19.982,37.397C19.982,36.719 20.323,36.091 20.882,35.734C21.443,35.379 22.142,35.348 22.731,35.649L39.577,44.314C40.221,44.644 40.627,45.321 40.627,46.061L40.627,67.722C40.627,68.399 40.286,69.028 39.727,69.385C39.422,69.578 39.075,69.676 38.727,69.676Z" style="fill:rgb(6,150,215);"/>
        <path id="Fill-18" d="M40.628,47.269L40.628,64.56L53.675,57.85L53.675,40.559L40.628,47.269ZM38.728,69.676C38.381,69.676 38.034,69.578 37.729,69.385C37.17,69.028 36.829,68.4 36.829,67.722L36.829,46.061C36.829,45.321 37.234,44.644 37.878,44.314L54.725,35.649C55.314,35.347 56.013,35.379 56.574,35.735C57.133,36.091 57.475,36.72 57.475,37.396L57.475,59.058C57.475,59.797 57.069,60.475 56.425,60.805L39.578,69.471C39.309,69.608 39.018,69.676 38.728,69.676Z" style="fill:rgb(6,150,215);"/>
        <path id="Fill-20" d="M55.573,39.351C55.289,39.351 54.998,39.285 54.726,39.145L38.728,30.919L22.73,39.145C21.789,39.63 20.651,39.237 20.181,38.271C19.712,37.305 20.092,36.131 21.031,35.649L37.878,26.985C38.412,26.71 39.043,26.71 39.578,26.985L56.426,35.649C57.363,36.131 57.744,37.305 57.274,38.271C56.941,38.955 56.271,39.351 55.573,39.351" style="fill:rgb(6,150,215);"/>
        <path id="Fill-22" d="M78.1,0.819L1.9,0.819C0.851,0.819 0,1.695 0,2.773L0,65.913C0,66.992 0.851,67.867 1.9,67.867L8.809,67.867C8.803,67.757 8.789,67.65 8.789,67.539C8.789,66.556 9.043,65.303 9.947,63.96L3.8,63.96L3.8,4.727L76.2,4.727L76.2,63.96L70.055,63.96C70.948,65.284 71.212,66.53 71.212,67.539C71.212,67.65 71.198,67.757 71.191,67.867L78.1,67.867C79.149,67.867 80,66.992 80,65.913L80,2.773C80,1.695 79.149,0.819 78.1,0.819" style="fill:rgb(6,150,215);"/>
    </g>
</svg>
